<svg width="30" height="30" viewBox="0 0 30 30" fill="none" xmlns="http://www.w3.org/2000/svg">
<g id="Icon">
<path id="Vector" d="M26.9407 14.6978L26.9417 14.7C26.983 14.7946 27.0043 14.8968 27.0043 15C27.0043 15.1032 26.983 15.2054 26.9417 15.3L26.9407 15.3022C24.4709 21.0366 19.8713 24.5 15 24.5C10.1287 24.5 5.52901 21.0366 3.05918 15.3022L3.05822 15.3C3.01692 15.2054 2.99561 15.1032 2.99561 15C2.99561 14.8968 3.01692 14.7946 3.05822 14.7L3.05918 14.6978C5.52901 8.96337 10.1287 5.5 15 5.5C19.8713 5.5 24.4709 8.96337 26.9407 14.6978ZM4.67181 14.7887L4.57327 15L4.67181 15.2113C6.88693 19.9617 10.7819 23 15 23C19.218 23 23.113 19.9617 25.3281 15.2113L25.4267 15L25.3281 14.7887C23.113 10.0383 19.218 7 15 7C10.7819 7 6.88693 10.0383 4.67181 14.7887ZM12.4999 11.2584C13.2399 10.7639 14.1099 10.5 15 10.5C16.1934 10.5 17.338 10.9741 18.1819 11.818C19.0259 12.6619 19.5 13.8065 19.5 15C19.5 15.89 19.236 16.76 18.7416 17.5001C18.2471 18.2401 17.5443 18.8169 16.722 19.1575C15.8998 19.4981 14.995 19.5872 14.1221 19.4135C13.2491 19.2399 12.4473 18.8113 11.818 18.182C11.1886 17.5526 10.7601 16.7508 10.5864 15.8779C10.4128 15.005 10.5019 14.1002 10.8425 13.2779C11.1831 12.4557 11.7599 11.7529 12.4999 11.2584ZM13.3333 17.4944C13.8266 17.8241 14.4066 18 15 18C15.7956 18 16.5587 17.6839 17.1213 17.1213C17.6839 16.5587 18 15.7957 18 15C18 14.4067 17.824 13.8266 17.4944 13.3333C17.1647 12.8399 16.6962 12.4554 16.148 12.2284C15.5998 12.0013 14.9966 11.9419 14.4147 12.0576C13.8327 12.1734 13.2982 12.4591 12.8786 12.8787C12.4591 13.2982 12.1734 13.8328 12.0576 14.4147C11.9418 14.9967 12.0013 15.5999 12.2283 16.148C12.4554 16.6962 12.8399 17.1648 13.3333 17.4944Z" fill="#BABABA" stroke="#BABABA"/>
<path id="Vector 1" d="M27 5L3 25" stroke="#BABABA" stroke-width="3" stroke-linecap="round"/>
</g>
</svg>
