<svg width="30" height="30" viewBox="0 0 30 30" fill="none" xmlns="http://www.w3.org/2000/svg">
<g id="Icon">
<path id="Vector" d="M13.75 14.875V21.25C13.75 21.5815 13.8817 21.8995 14.1161 22.1339C14.3505 22.3683 14.6685 22.5 15 22.5C15.3315 22.5 15.6495 22.3683 15.8839 22.1339C16.1183 21.8995 16.25 21.5815 16.25 21.25V14.875C17.7676 14.5652 19.116 13.703 20.034 12.4555C20.952 11.208 21.374 9.6641 21.2183 8.1231C21.0627 6.5821 20.3404 5.15379 19.1914 4.11509C18.0425 3.07638 16.5488 2.50128 15 2.50128C13.4512 2.50128 11.9575 3.07638 10.8086 4.11509C9.65964 5.15379 8.93732 6.5821 8.78165 8.1231C8.62598 9.6641 9.04804 11.208 9.966 12.4555C10.884 13.703 12.2324 14.5652 13.75 14.875ZM15 5.00001C15.7417 5.00001 16.4667 5.21994 17.0834 5.632C17.7001 6.04405 18.1807 6.62972 18.4645 7.31494C18.7484 8.00017 18.8226 8.75417 18.6779 9.4816C18.5333 10.209 18.1761 10.8772 17.6517 11.4017C17.1272 11.9261 16.459 12.2833 15.7316 12.428C15.0042 12.5726 14.2502 12.4984 13.5649 12.2146C12.8797 11.9307 12.294 11.4501 11.882 10.8334C11.4699 10.2167 11.25 9.49169 11.25 8.75001C11.25 7.75544 11.6451 6.80162 12.3483 6.09836C13.0516 5.39509 14.0054 5.00001 15 5.00001ZM20.2625 18.025C20.0983 17.9905 19.929 17.9887 19.7642 18.0197C19.5993 18.0507 19.4422 18.1138 19.3017 18.2055C19.1613 18.2972 19.0403 18.4157 18.9456 18.5541C18.8509 18.6926 18.7845 18.8484 18.75 19.0125C18.7155 19.1767 18.7137 19.346 18.7447 19.5108C18.7757 19.6757 18.8388 19.8328 18.9305 19.9733C19.0222 20.1137 19.1407 20.2347 19.2791 20.3294C19.4176 20.4241 19.5733 20.4905 19.7375 20.525C22.575 21.0875 23.75 22.1 23.75 22.5C23.75 23.225 20.6875 25 15 25C9.3125 25 6.25 23.225 6.25 22.5C6.25 22.1 7.425 21.0875 10.2625 20.475C10.4267 20.4405 10.5824 20.3741 10.7209 20.2794C10.8593 20.1847 10.9778 20.0637 11.0695 19.9233C11.1612 19.7828 11.2243 19.6257 11.2553 19.4608C11.2863 19.296 11.2845 19.1267 11.25 18.9625C11.2155 18.7984 11.1491 18.6426 11.0544 18.5041C10.9597 18.3657 10.8387 18.2472 10.6983 18.1555C10.5578 18.0638 10.4007 18.0007 10.2358 17.9697C10.071 17.9387 9.90165 17.9405 9.7375 17.975C5.9375 18.85 3.75 20.4875 3.75 22.5C3.75 25.7875 9.4125 27.5 15 27.5C20.5875 27.5 26.25 25.7875 26.25 22.5C26.25 20.4875 24.0625 18.85 20.2625 18.025Z" fill="white"/>
</g>
</svg>
