<svg width="30" height="30" viewBox="0 0 30 30" fill="none" xmlns="http://www.w3.org/2000/svg">
<g id="Icon">
<path id="Vector" d="M24.3 16.25C24.025 16.25 23.7375 16.1625 23.4625 16.1C22.9056 15.9773 22.3583 15.8143 21.825 15.6125C21.2451 15.4015 20.6077 15.4125 20.0354 15.6432C19.4631 15.874 18.9964 16.3083 18.725 16.8625L18.45 17.425C17.2325 16.7477 16.1137 15.9065 15.125 14.925C14.1435 13.9363 13.3023 12.8175 12.625 11.6L13.15 11.25C13.7042 10.9786 14.1385 10.5119 14.3692 9.9396C14.6 9.3673 14.611 8.72988 14.4 8.14999C14.2015 7.61552 14.0387 7.06849 13.9125 6.51249C13.85 6.23749 13.8 5.94999 13.7625 5.66249C13.6107 4.78201 13.1495 3.98467 12.462 3.41404C11.7745 2.84341 10.9059 2.537 10.0125 2.54999H6.2625C5.72379 2.54493 5.19032 2.656 4.69839 2.87565C4.20647 3.0953 3.76764 3.41836 3.41179 3.82284C3.05594 4.22732 2.79142 4.70373 2.63624 5.21963C2.48106 5.73553 2.43885 6.27881 2.5125 6.81249C3.17843 12.0492 5.57004 16.9148 9.30957 20.6408C13.0491 24.3667 17.9234 26.7406 23.1625 27.3875H23.6375C24.5593 27.3888 25.4493 27.0506 26.1375 26.4375C26.533 26.0838 26.8489 25.6502 27.0643 25.1654C27.2798 24.6806 27.39 24.1555 27.3875 23.625V19.875C27.3722 19.0067 27.056 18.1707 26.4929 17.5096C25.9298 16.8485 25.1548 16.4033 24.3 16.25ZM24.925 23.75C24.9248 23.9275 24.8868 24.1029 24.8135 24.2645C24.7402 24.4262 24.6333 24.5704 24.5 24.6875C24.3607 24.8087 24.1975 24.8993 24.0208 24.9531C23.8442 25.007 23.6582 25.0229 23.475 25C18.7936 24.3997 14.4453 22.2581 11.1159 18.9129C7.7865 15.5676 5.66552 11.2092 5.0875 6.52499C5.06761 6.34189 5.08504 6.15665 5.13876 5.98048C5.19247 5.8043 5.28134 5.64085 5.4 5.49999C5.51714 5.36665 5.66133 5.25979 5.82298 5.18651C5.98462 5.11323 6.16002 5.07521 6.3375 5.07499H10.0875C10.3782 5.06852 10.662 5.16359 10.8902 5.34383C11.1183 5.52407 11.2765 5.7782 11.3375 6.06249C11.3875 6.40415 11.45 6.74165 11.525 7.07499C11.6694 7.73392 11.8616 8.38146 12.1 9.01249L10.35 9.82499C10.2004 9.89364 10.0658 9.99117 9.95395 10.112C9.84212 10.2328 9.75525 10.3745 9.69834 10.529C9.64143 10.6835 9.61559 10.8477 9.62231 11.0121C9.62903 11.1766 9.66818 11.3382 9.7375 11.4875C11.5365 15.3409 14.6341 18.4385 18.4875 20.2375C18.7918 20.3625 19.1332 20.3625 19.4375 20.2375C19.5934 20.1817 19.7367 20.0956 19.859 19.984C19.9813 19.8724 20.0802 19.7376 20.15 19.5875L20.925 17.8375C21.5712 18.0686 22.2307 18.2606 22.9 18.4125C23.2333 18.4875 23.5708 18.55 23.9125 18.6C24.1968 18.661 24.4509 18.8192 24.6312 19.0473C24.8114 19.2755 24.9065 19.5593 24.9 19.85L24.925 23.75Z" fill="white"/>
</g>
</svg>
