<svg width="30" height="30" viewBox="0 0 30 30" fill="none" xmlns="http://www.w3.org/2000/svg">
<g id="Icon">
<path id="Vector" d="M25.575 12.0375C25.3995 10.2111 24.754 8.46134 23.7014 6.95851C22.6489 5.45568 21.2251 4.25103 19.5687 3.46186C17.9123 2.67268 16.0798 2.32589 14.2496 2.45524C12.4194 2.5846 10.6539 3.18569 9.12497 4.19999C7.81147 5.0783 6.70879 6.23661 5.89615 7.59173C5.08352 8.94684 4.58109 10.4651 4.42497 12.0375C4.27183 13.5996 4.46832 15.1761 5.00019 16.6528C5.53206 18.1295 6.38597 19.4693 7.49997 20.575L14.125 27.2125C14.2412 27.3297 14.3794 27.4226 14.5318 27.4861C14.6841 27.5496 14.8475 27.5822 15.0125 27.5822C15.1775 27.5822 15.3409 27.5496 15.4932 27.4861C15.6455 27.4226 15.7838 27.3297 15.9 27.2125L22.5 20.575C23.614 19.4693 24.4679 18.1295 24.9998 16.6528C25.5316 15.1761 25.7281 13.5996 25.575 12.0375ZM20.75 18.8125L15 24.5625L9.24997 18.8125C8.40259 17.9651 7.75348 16.9404 7.34931 15.8122C6.94514 14.684 6.79595 13.4802 6.91247 12.2875C7.02975 11.0764 7.41468 9.90644 8.03944 8.86229C8.6642 7.81815 9.51317 6.92587 10.525 6.24999C11.8512 5.36903 13.4079 4.89911 15 4.89911C16.5921 4.89911 18.1488 5.36903 19.475 6.24999C20.4837 6.92326 21.3308 7.81159 21.9554 8.85116C22.58 9.89073 22.9666 11.0557 23.0875 12.2625C23.2078 13.4593 23.0605 14.6678 22.6562 15.8007C22.2519 16.9335 21.6008 17.9623 20.75 18.8125ZM15 7.49999C13.8875 7.49999 12.7999 7.82989 11.8749 8.44797C10.9499 9.06606 10.2289 9.94456 9.80315 10.9724C9.37741 12.0002 9.26601 13.1312 9.48306 14.2224C9.7001 15.3135 10.2358 16.3158 11.0225 17.1025C11.8092 17.8891 12.8114 18.4249 13.9026 18.6419C14.9937 18.8589 16.1247 18.7476 17.1526 18.3218C18.1804 17.8961 19.0589 17.1751 19.677 16.2501C20.2951 15.325 20.625 14.2375 20.625 13.125C20.6217 11.6342 20.028 10.2053 18.9738 9.15116C17.9196 8.09698 16.4908 7.50329 15 7.49999ZM15 16.25C14.3819 16.25 13.7777 16.0667 13.2638 15.7233C12.7499 15.38 12.3494 14.8919 12.1128 14.3209C11.8763 13.7499 11.8144 13.1215 11.935 12.5153C12.0556 11.9091 12.3532 11.3523 12.7903 10.9153C13.2273 10.4782 13.7841 10.1806 14.3903 10.06C14.9965 9.93946 15.6248 10.0013 16.1959 10.2379C16.7669 10.4744 17.2549 10.8749 17.5983 11.3888C17.9417 11.9027 18.125 12.5069 18.125 13.125C18.125 13.9538 17.7957 14.7486 17.2097 15.3347C16.6236 15.9207 15.8288 16.25 15 16.25Z" fill="white"/>
</g>
</svg>
