<svg width="24" height="24" viewBox="0 0 24 24" fill="none" xmlns="http://www.w3.org/2000/svg">
<g id="User Interface / Save">
<path id="Vector" d="M15.9429 2H8.28574C7.52419 2 6.79383 2.31607 6.25534 2.87868C5.71684 3.44129 5.41431 4.20435 5.41431 5V21C5.41364 21.1762 5.45755 21.3495 5.54159 21.5023C5.62563 21.655 5.74682 21.7819 5.89289 21.87C6.03839 21.9578 6.20344 22.004 6.37146 22.004C6.53947 22.004 6.70452 21.9578 6.85003 21.87L12.1143 18.69L17.3786 21.87C17.5245 21.9564 17.6895 22.0012 17.8572 22C18.0248 22.0012 18.1899 21.9564 18.3357 21.87C18.4818 21.7819 18.603 21.655 18.687 21.5023C18.7711 21.3495 18.815 21.1762 18.8143 21V5C18.8143 4.20435 18.5118 3.44129 17.9733 2.87868C17.4348 2.31607 16.7044 2 15.9429 2ZM16.9 19.27L12.5929 16.67C12.4474 16.5822 12.2823 16.536 12.1143 16.536C11.9463 16.536 11.7812 16.5822 11.6357 16.67L7.3286 19.27V5C7.3286 4.73478 7.42944 4.48043 7.60894 4.29289C7.78844 4.10536 8.03189 4 8.28574 4H15.9429C16.1967 4 16.4402 4.10536 16.6197 4.29289C16.7992 4.48043 16.9 4.73478 16.9 5V19.27Z" fill="black"/>
</g>
</svg>
